<svg xmlns="http://www.w3.org/2000/svg" xmlns:xlink="http://www.w3.org/1999/xlink" width="100" height="100" viewBox="0 0 100 100"><circle stroke="none" fill="#da5e1b" r="48%" cx="50%" cy="50%"></circle><g transform="translate(50 50) scale(0.69 0.69) rotate(0) translate(-50 -50)" style="fill:#110903"><svg fill="#110903" xmlns="http://www.w3.org/2000/svg" version="1.0" viewBox="0 0 800.000000 800.000000" preserveAspectRatio="xMidYMid meet" x="0px" y="0px"><metadata>
Created by potrace 1.11, written by Peter Selinger 2001-2013
</metadata><g transform="translate(0.000000,800.000000) scale(0.100000,-0.100000)" fill="#110903" stroke="none"><path d="M3205 7534 c-335 -26 -686 -89 -836 -150 -156 -64 -311 -176 -495 -359 -144 -143 -205 -219 -224 -280 -8 -22 -17 -85 -20 -140 -6 -92 -11 -109 -57 -210 -28 -60 -81 -195 -119 -300 l-68 -190 0 -115 c-1 -96 3 -127 24 -190 45 -139 27 -380 -32 -411 -32 -17 -108 -5 -184 29 l-69 32 54 -50 c29 -27 77 -61 106 -77 l53 -27 -15 -31 c-38 -73 -193 -254 -393 -460 -65 -66 -125 -135 -135 -154 -22 -44 -16 -131 11 -168 14 -18 88 -57 244 -128 l225 -103 -2 -58 c-2 -66 -33 -173 -63 -222 -11 -18 -34 -41 -50 -50 -25 -14 -30 -23 -30 -55 0 -54 22 -99 65 -134 44 -37 101 -53 187 -53 l63 0 -45 -27 c-79 -46 -108 -73 -130 -118 -26 -55 -19 -88 26 -116 50 -31 101 -95 121 -153 26 -74 23 -216 -6 -329 -22 -85 -22 -90 -6 -130 41 -104 137 -172 285 -203 102 -22 272 -14 355 16 186 66 437 108 706 117 l186 6 100 -134 c352 -470 559 -901 659 -1374 26 -119 28 -149 28 -352 1 -145 4 -219 11 -215 8 5 1944 1459 1953 1467 1 1 -52 55 -119 121 -587 576 -881 1066 -861 1435 2 30 8 39 40 56 71 41 202 144 305 243 116 111 134 118 187 73 29 -24 32 -31 27 -67 -3 -23 -24 -79 -46 -126 -22 -47 -52 -131 -67 -185 -35 -131 -40 -348 -10 -460 27 -102 67 -194 122 -282 68 -110 259 -300 390 -386 91 -61 286 -167 305 -167 4 0 -32 39 -80 87 -134 136 -226 290 -239 402 l-5 45 44 -36 c124 -100 351 -229 497 -282 171 -61 224 -70 417 -71 209 0 285 15 440 89 103 50 209 122 162 112 -112 -25 -177 -14 -238 41 -47 43 -81 104 -105 194 -14 52 -18 110 -20 309 -1 207 -5 261 -23 347 -62 296 -215 549 -433 714 -171 129 -286 155 -460 104 -107 -32 -224 -42 -285 -26 -54 15 -98 57 -113 109 -13 41 -12 42 57 179 163 318 235 606 234 938 0 329 -69 618 -222 931 -64 132 -181 314 -282 439 -91 113 -286 297 -398 377 -230 165 -522 268 -910 324 -110 15 -664 28 -794 18z m903 -524 c200 -18 344 -57 518 -139 690 -328 1020 -1125 764 -1846 -76 -212 -183 -380 -354 -551 -212 -211 -439 -337 -735 -405 -61 -15 -138 -22 -266 -26 -277 -8 -453 28 -692 142 -299 142 -540 380 -690 678 -99 199 -142 375 -150 617 -4 149 -2 193 15 295 56 325 207 606 447 834 271 256 604 393 1000 410 17 0 81 -4 143 -9z"></path><path d="M4062 5983 c-103 -287 -341 -977 -339 -980 8 -8 152 -22 157 -16 4 5 87 240 185 523 98 283 180 520 182 526 5 13 -18 20 -98 29 l-56 7 -31 -89z"></path><path d="M3120 5851 l-365 -197 0 -134 0 -133 360 -188 c198 -104 363 -188 368 -189 4 0 7 60 7 134 l0 133 -222 117 c-123 65 -226 121 -230 125 -4 4 96 63 222 131 l230 125 0 138 c0 75 -1 137 -2 136 -2 0 -167 -89 -368 -198z"></path><path d="M4420 5912 l0 -137 230 -125 c126 -68 226 -127 222 -131 -4 -4 -107 -60 -229 -125 l-223 -117 0 -134 c0 -73 3 -133 8 -133 4 0 174 85 377 189 l370 189 0 133 0 133 -245 128 c-135 71 -305 160 -377 198 l-133 69 0 -137z"></path></g></svg></g></svg>